<svg xmlns="http://www.w3.org/2000/svg" xmlns:svg="http://www.w3.org/2000/svg" id="svg6" width="24" height="24" version="1.1" viewBox="0 0 24 24"><metadata id="metadata10"/><defs id="defs3051"><style id="current-color-scheme" type="text/css"/></defs><g id="layer4" style="display:inline"><path id="rect835" style="fill:#000;stroke:#fff;stroke-width:.380255;stroke-linecap:round;stroke-linejoin:miter;paint-order:stroke markers fill" d="M 5.6971784,3.1459105 C 5.664124,3.1641698 5.6367896,3.1915115 5.6185394,3.2245716 5.5921425,3.2723894 5.59375,3.365084 5.59375,3.4203125 V 20.452734 c 0,0.05523 0.00151,0.155709 0.046309,0.183773 0.00609,0.0038 0.012582,0.007 0.01934,0.0094 0.049688,0.01802 0.1301535,-0.04216 0.1741254,-0.07558 L 11.760226,16.06637 c 0.04397,-0.03342 0.115643,-0.09017 0.168493,-0.105016 0.04659,-0.01309 0.09601,-0.01309 0.142593,8e-6 0.05283,0.01485 0.12449,0.07159 0.168462,0.105008 l 5.926702,4.503988 c 0.04397,0.03342 0.124451,0.09361 0.174146,0.07557 0.0068,-0.0025 0.01325,-0.0056 0.01934,-0.0094 0.04479,-0.02807 0.04629,-0.128534 0.04629,-0.183762 V 3.4203125 c 0,-0.055229 0.0016,-0.1479536 -0.02482,-0.1957904 -0.01826,-0.033054 -0.0456,-0.060389 -0.07866,-0.078639 -0.04782,-0.026397 -0.140513,-0.024789 -0.195741,-0.024789 H 5.8929688 c -0.055229,0 -0.1479536,-0.00161 -0.1957904,0.024816 z m 6.3281766,2.413937 1.01179,3.0795238 a 0.13836235,0.13836235 35.954706 0 0 0.131214,0.095174 l 3.241407,0.00552 a 0.03276036,0.03276036 71.958581 0 1 0.01928,0.059203 l -2.615912,1.9131837 a 0.13829637,0.13829637 107.94948 0 0 -0.04995,0.154181 l 0.997054,3.083142 a 0.03277769,0.03277769 143.93141 0 1 -0.05035,0.03668 l -2.62877,-1.894776 a 0.13843915,0.13843915 179.94141 0 0 -0.162127,1.66e-4 l -2.6251019,1.900302 a 0.03276385,0.03276385 35.958575 0 1 -0.050404,-0.03657 l 0.9915359,-3.084984 a 0.13837556,0.13837556 71.96324 0 0 -0.05019,-0.154135 L 7.5671181,8.8069788 a 0.03278543,0.03278543 107.95674 0 1 0.019209,-0.059273 l 3.2394549,-0.011037 a 0.13834926,0.13834926 143.94507 0 0 0.131042,-0.0954 l 1.006274,-3.0813653 a 0.03275605,0.03275605 179.9486 0 1 0.06226,-5.58e-5 z"/></g></svg>