<svg xmlns="http://www.w3.org/2000/svg" xmlns:svg="http://www.w3.org/2000/svg" id="svg8" width="24" height="24" version="1.1" viewBox="0 0 24 24"><metadata id="metadata5"/><g id="layer1" transform="translate(0,-290.65)"><path id="path892" d="M 24,296.82355 H 0 v 15.7124 h 24 z m -12.000048,12.90884 c -2.79036,0 -5.052588,-2.26213 -5.052588,-5.0527 0,-2.79035 2.262132,-5.05256 5.052588,-5.05256 2.790456,0 5.052792,2.26221 5.052792,5.05256 0,2.79057 -2.262336,5.0527 -5.052792,5.0527 z m -2.83812,-16.96835 h 5.676336 l 1.867212,3.01056 H 7.294836 Z m 5.869788,11.91566 c 0,1.67428 -1.357296,3.03168 -3.031668,3.03168 -1.674168,0 -3.031476,-1.3574 -3.031476,-3.03168 0,-1.67426 1.357308,-3.03156 3.031476,-3.03156 1.674372,1.1e-4 3.031668,1.3573 3.031668,3.03156 z" style="stroke-width:.104063"/></g></svg>