<svg xmlns="http://www.w3.org/2000/svg" xmlns:svg="http://www.w3.org/2000/svg" id="svg6" width="24" height="24" version="1.1" viewBox="0 0 24 24"><metadata id="metadata12"/><title id="title2">uniE205</title><path id="path4" d="m 13.86585,1.73345 h 1.8669 q 0.392,0 0.6629,0.2709 0.2709,0.2709 0.2709,0.6629 v 0.9331 h 0.9331 q 0.392,0 0.6629,0.2709 0.2709,0.2709 0.2709,0.6629 v 1.8669 q 0,0.392 -0.2709,0.6629 -0.2709,0.2709 -0.6629,0.2709 h -5.6 q -0.392,0 -0.6629,-0.2709 -0.2709,-0.2709 -0.2709,-0.6629 v -1.8669 q 0,-0.392 0.2709,-0.6629 0.2709,-0.2709 0.6629,-0.2709 h 0.9331 v -0.9331 q 0,-0.392 0.2709,-0.6629 0.2709,-0.2709 0.6629,-0.2709 z m 6.5338,4.6662 v -2.8 q 0.7651,0 1.316,0.5509 0.5509,0.5509 0.5509,1.316 v 14.9331 q 0,0.7651 -0.5509,1.316 -0.5509,0.5509 -1.316,0.5509 h -11.2 q -0.0189,0 -0.3731,-0.0749 l 4.592,-4.592 -6.0851,-6.0851 v -6.048 q 0,-0.7651 0.5509,-1.316 0.5509,-0.5509 1.316,-0.5509 v 2.8 q 0,1.1571 0.8211,1.9789 0.8211,0.8218 1.9789,0.8211 h 5.6 q 1.1571,0 1.9789,-0.8211 0.8218,-0.8211 0.8211,-1.9789 z m -10.976,11.2 -3.9571,3.9571 v -3.024 h -3.7331 v -1.8669 h 3.7331 v -3.024 z" style="stroke-width:.69999999"/></svg>