<svg xmlns="http://www.w3.org/2000/svg" xmlns:svg="http://www.w3.org/2000/svg" id="Capa_1" width="24" height="24" x="0" y="0" version="1.1" viewBox="0 0 24 24" xml:space="preserve"><metadata id="metadata47"/><g id="g10" transform="matrix(0.04424334,0,0,0.04424334,1.1456098,0.91230727)"><g id="g8"><path id="circle2" d="m 264.45888,248.625 a 19.125,19.125 0 0 1 -19.125,19.125 19.125,19.125 0 0 1 -19.125,-19.125 19.125,19.125 0 0 1 19.125,-19.125 19.125,19.125 0 0 1 19.125,19.125 z"/><path id="path4" d="m 245.33388,172.125 c -42.075,0 -76.5,34.425 -76.5,76.5 0,42.075 34.425,76.5 76.5,76.5 42.075,0 76.5,-34.425 76.5,-76.5 0,-42.075 -34.425,-76.5 -76.5,-76.5 z m 0,133.875 c -32.513,0 -57.375,-24.862 -57.375,-57.375 0,-32.513 24.862,-57.375 57.375,-57.375 32.513,0 57.375,24.862 57.375,57.375 0,32.513 -24.862,57.375 -57.375,57.375 z"/><path id="path6" d="m 245.32507,92.142517 c -172.125,0 -271.218452,156.482483 -271.218452,156.482483 0,0 99.093452,156.46857 271.218452,156.46857 172.125,0 271.23607,-156.46857 271.23607,-156.46857 0,0 -99.11107,-156.482483 -271.23607,-156.482483 z m 0,271.232483 c -153,0 -225.675,-114.75 -225.675,-114.75 0,0 72.675,-114.75 225.675,-114.75 153,0 225.675,114.75 225.675,114.75 0,0 -72.675,114.75 -225.675,114.75 z"/></g></g></svg>