<svg xmlns="http://www.w3.org/2000/svg" xmlns:svg="http://www.w3.org/2000/svg" id="svg6" width="24" height="24" version="1.1" viewBox="0 0 24 24"><metadata id="metadata12"/><title id="title2">uniE236</title><path id="path4" d="m 3.13345,2.66655 h 17.7331 q 0.1869,0 0.3269,0.14 0.14,0.14 0.14,0.3269 v 2.8 q 0,0.1869 -0.14,0.3269 -0.14,0.14 -0.3269,0.14 H 3.13345 q -0.1869,0 -0.3269,-0.14 -0.14,-0.14 -0.14,-0.3269 v -2.8 q 0,-0.1869 0.14,-0.3269 0.14,-0.14 0.3269,-0.14 z m 0,7.4662 h 17.7331 q 0.1869,0 0.3269,0.14 0.14,0.14 0.14,0.3269 v 2.8 q 0,0.1869 -0.14,0.3269 -0.14,0.14 -0.3269,0.14 H 3.13345 q -0.1869,0 -0.3269,-0.14 -0.14,-0.14 -0.14,-0.3269 v -2.8 q 0,-0.1869 0.14,-0.3269 0.14,-0.14 0.3269,-0.14 z m 0,7.4669 h 17.7331 q 0.1869,0 0.3269,0.14 0.14,0.14 0.14,0.3269 v 2.8 q 0,0.1869 -0.14,0.3269 -0.14,0.14 -0.3269,0.14 H 3.13345 q -0.1869,0 -0.3269,-0.14 -0.14,-0.14 -0.14,-0.3269 v -2.8 q 0,-0.1869 0.14,-0.3269 0.14,-0.14 0.3269,-0.14 z" style="stroke-width:.69999999"/></svg>