<svg xmlns="http://www.w3.org/2000/svg" xmlns:svg="http://www.w3.org/2000/svg" id="svg6" width="24" height="24" version="1.1" viewBox="0 0 24 24"><metadata id="metadata12"/><title id="title2">uniE082</title><path id="path4" d="m 12,1.2298 q 2.184,0 4.1811,0.8491 1.9971,0.8491 3.444,2.296 1.4469,1.4469 2.296,3.444 0.8491,1.9971 0.8491,4.1811 0,2.184 -0.8491,4.1811 -0.8491,1.9971 -2.296,3.444 -1.4469,1.4469 -3.444,2.296 Q 14.184,22.7702 12,22.7702 9.816,22.7702 7.8189,21.9211 5.8218,21.072 4.3749,19.6251 2.928,18.1782 2.0789,16.1811 1.2298,14.184 1.2298,12 1.2298,9.816 2.0789,7.8189 2.928,5.8218 4.3749,4.3749 5.8218,2.928 7.8189,2.0789 9.816,1.2298 12,1.2298 Z m 4.6669,8.904 H 7.3338 q -0.392,0 -0.6629,0.2709 Q 6.4,10.6756 6.4,11.0676 v 1.8669 q 0,0.392 0.2709,0.6629 0.2709,0.2709 0.6629,0.2709 h 9.3331 q 0.392,0 0.6629,-0.2709 0.2709,-0.2709 0.2709,-0.6629 v -1.8669 q 0,-0.392 -0.2709,-0.6629 -0.2709,-0.2709 -0.6629,-0.2709 z" style="stroke-width:.69999999"/></svg>