<svg xmlns="http://www.w3.org/2000/svg" xmlns:svg="http://www.w3.org/2000/svg" id="svg6" width="24" height="24" version="1.1" viewBox="0 0 24 24"><metadata id="metadata12"/><title id="title2">uniE013</title><path id="path4" d="M 8.6029,13.3629 19.2618,2.704 q 0.1491,-0.1491 0.336,-0.1491 0.1869,0 0.3171,0.1491 l 3.304,3.304 q 0.1491,0.1309 0.1491,0.3171 0,0.1862 -0.1491,0.336 L 8.6029,21.296 Q 8.472,21.4451 8.276,21.4451 8.08,21.4451 7.9491,21.296 L 0.7811,14.128 Q 0.632,13.9789 0.632,13.792 q 0,-0.1869 0.1491,-0.3171 l 3.304,-3.304 q 0.1309,-0.1491 0.3171,-0.1491 0.1862,0 0.336,0.1491 l 3.192,3.192 q 0.1309,0.1309 0.336,0.1309 0.2051,0 0.336,-0.1309 z" style="stroke-width:.69999999"/></svg>