<svg xmlns="http://www.w3.org/2000/svg" xmlns:svg="http://www.w3.org/2000/svg" id="Layer_1" width="24" height="24" version="1.1" viewBox="0 0 24 24" xml:space="preserve"><metadata id="metadata9"/><path id="path2" d="m 22.285714,12 c -1.044858,0 -1.540285,0.736285 -1.714285,1.513715 C 19.944856,16.311429 17.286,20.571429 12,20.571429 7.266,20.571429 3.4285714,16.733144 3.4285714,12 3.4285714,7.2668565 7.266,3.428571 12,3.428571 c 1.92,0 3.681429,0.645429 5.108571,1.7142855 h -1.68 c -0.946286,0 -1.714286,0.768 -1.714286,1.714287 0,0.9462855 0.768,1.7142855 1.714286,1.7142855 h 5.142858 c 0.946285,0 1.714285,-0.768 1.714285,-1.7142855 V 1.7142855 C 22.285714,0.768 21.517714,0 20.571429,0 19.625143,0 18.857143,0.768 18.857143,1.7142855 v 0.444 C 16.914,0.7988565 14.551714,0 12,0 5.3725714,0 0,5.372571 0,12 0,18.627429 5.3725714,24 12,24 20.553429,24 24,15.857143 24,13.821429 24,12.576 23.089714,12 22.285714,12 Z" style="stroke-width:.85714293"/></svg>