<svg xmlns="http://www.w3.org/2000/svg" xmlns:svg="http://www.w3.org/2000/svg" id="svg6" width="24" height="24" version="1.1" viewBox="0 0 24 24"><metadata id="metadata12"/><title id="title2">uniE003</title><path id="path4" d="m 9.9510055,0.80945 q 1.8669005,0 3.5651005,0.728 1.6982,0.728 2.9211,1.9509 1.2229,1.2229 1.9509,2.9211 0.728,1.6982 0.728,3.5651 l -0.0189,0.0371 0.0189,0.0931 q 0,2.632 -1.456,4.8909 l 5.1331,5.1149 q 0.4291,0.4851 0.42,0.8309 -0.0091,0.3458 -0.42,0.7931 l -1.1011,1.0829 q -0.4851,0.3731 -0.868,0.3731 -0.3829,0 -0.7371,-0.3731 l -5.1331,-5.1149 q -2.2211,1.4371 -4.872,1.4371 l -0.093101,-0.0189 -0.0371,0.0189 q -1.8669,0 -3.5651,-0.728 -1.6982,-0.728 -2.9211,-1.9509 -1.2229,-1.2229 -1.9509,-2.9211 -0.72799949,-1.6982 -0.72799949,-3.5651 0,-1.8669 0.72799999,-3.5651 0.728,-1.6982 1.9509,-2.9211 1.2229,-1.2229 2.9211,-1.9509 1.6982,-0.728 3.5651,-0.728 z m 0,3.1549 q -1.6429,0 -3.024,0.8029 -1.3811,0.8029 -2.184,2.184 -0.8029,1.3811 -0.8029,3.024 0,1.6429 0.8029,3.024 0.8029,1.3811 2.184,2.184 1.3811,0.8029 3.024,0.8029 1.6429005,0 3.0240005,-0.8029 1.3811,-0.8029 2.184,-2.184 0.8029,-1.3811 0.8029,-3.024 0,-1.6429 -0.8029,-3.024 -0.8029,-1.3811 -2.184,-2.184 -1.3811,-0.8029 -3.0240005,-0.8029 z" style="stroke-width:.69999999"/></svg>