<svg xmlns="http://www.w3.org/2000/svg" xmlns:svg="http://www.w3.org/2000/svg" id="svg4492" width="24" height="24" version="1.1" viewBox="0 0 24 24"><metadata id="metadata4489"/><g id="layer1" transform="translate(0,-290.64998)"><path style="color:#000;font-style:normal;font-variant:normal;font-weight:400;font-stretch:normal;font-size:medium;line-height:normal;font-family:sans-serif;font-variant-ligatures:normal;font-variant-position:normal;font-variant-caps:normal;font-variant-numeric:normal;font-variant-alternates:normal;font-feature-settings:normal;text-indent:0;text-align:start;text-decoration:none;text-decoration-line:none;text-decoration-style:solid;text-decoration-color:#000;letter-spacing:normal;word-spacing:normal;text-transform:none;writing-mode:lr-tb;direction:ltr;text-orientation:mixed;dominant-baseline:auto;baseline-shift:baseline;text-anchor:start;white-space:normal;shape-padding:0;clip-rule:nonzero;display:inline;overflow:visible;visibility:visible;opacity:1;isolation:auto;mix-blend-mode:normal;color-interpolation:sRGB;color-interpolation-filters:linearRGB;solid-color:#000;solid-opacity:1;vector-effect:none;fill:#000;fill-opacity:1;fill-rule:evenodd;stroke:none;stroke-width:1.00000393;stroke-linecap:butt;stroke-linejoin:miter;stroke-miterlimit:4;stroke-dasharray:2.00000791,1.00000398;stroke-dashoffset:0;stroke-opacity:1;color-rendering:auto;image-rendering:auto;shape-rendering:auto;text-rendering:auto;enable-background:accumulate" id="path4498" d="m 2,292.15039 h 2 v -1 H 2 Z m 3,0 h 2 v -1 H 5 Z m 3,0 h 2 v -1 H 8 Z m 3,0 h 2 v -1 h -2 z m 3,0 h 2 v -1 h -2 z m -13.5,1.5 h 1 v -2 h -1 z m 15,1 h 1 v -2 h -1 z m -15,2 h 1 v -2 h -1 z m 15,1 h 1 v -2 h -1 z m -15,2 h 1 v -2 h -1 z m 15,1 h 1 v -2 h -1 z m -15,2 h 1 v -2 h -1 z m 15,0 h 1 v -1 h -1 z m -14.5,1.5 h 2 v -1 H 1 Z m 3,0 h 2 v -1 H 4 Z m 3,0 h 2 v -1 H 7 Z m 3,0 h 2 v -1 h -2 z m 3,0 h 2 v -1 h -2 z"/><path style="fill:none;fill-rule:evenodd;stroke:#000;stroke-width:1.00000393px;stroke-linecap:butt;stroke-linejoin:round;stroke-opacity:1" id="path4513" d="m 21.158084,313.07555 0.812172,-0.46991 -1.875666,-3.25525 2.905501,-0.59573 -7.000113,-4.63111 0.502574,8.38994 1.967658,-2.22339 1.875684,3.25528 z"/></g></svg>