<svg xmlns="http://www.w3.org/2000/svg" xmlns:svg="http://www.w3.org/2000/svg" id="svg4492" width="24" height="24" version="1.1" viewBox="0 0 24 24"><metadata id="metadata4489"/><g id="layer1" transform="translate(0,-290.64998)"><path id="rect824" style="color:#000;fill:#000;stroke-dasharray:4,2;-inkscape-stroke:none" d="M 0 292.64998 L 0 298.64998 L 2 298.64998 L 2 299.64998 L 4 299.64998 L 4 298.64998 L 6 298.64998 L 6 296.64998 L 7 296.64998 L 7 294.64998 L 6 294.64998 L 6 292.64998 L 0 292.64998 z M 18 292.64998 L 18 294.64998 L 15 294.64998 L 15 296.64998 L 18 296.64998 L 18 298.64998 L 20 298.64998 L 20 299.64998 L 22 299.64998 L 22 298.64998 L 24 298.64998 L 24 292.64998 L 18 292.64998 z M 1 293.64998 L 5 293.64998 L 5 294.64998 L 5 296.64998 L 5 297.64998 L 4 297.64998 L 2 297.64998 L 1 297.64998 L 1 293.64998 z M 19 293.64998 L 23 293.64998 L 23 297.64998 L 22 297.64998 L 20 297.64998 L 19 297.64998 L 19 293.64998 z M 9 294.64998 L 9 296.64998 L 13 296.64998 L 13 294.64998 L 9 294.64998 z M 2 301.64998 L 2 305.64998 L 4 305.64998 L 4 301.64998 L 2 301.64998 z M 20 301.64998 L 20 305.64998 L 22 305.64998 L 22 301.64998 L 20 301.64998 z M 0 306.64998 L 0 312.64998 L 6 312.64998 L 6 306.64998 L 0 306.64998 z M 18 306.64998 L 18 312.64998 L 24 312.64998 L 24 306.64998 L 18 306.64998 z M 1 307.64998 L 5 307.64998 L 5 311.64998 L 1 311.64998 L 1 307.64998 z M 19 307.64998 L 23 307.64998 L 23 311.64998 L 19 311.64998 L 19 307.64998 z M 7 308.64998 L 7 310.64998 L 11 310.64998 L 11 308.64998 L 7 308.64998 z M 13 308.64998 L 13 310.64998 L 17 310.64998 L 17 308.64998 L 13 308.64998 z"/></g></svg>